<svg width="219" height="142" viewBox="0 0 219 142" fill="none" xmlns="http://www.w3.org/2000/svg">
<g filter="url(#filter0_bd_22_13)">
<path d="M193 12H26C20.4772 12 16 16.4771 16 22V112C16 117.523 20.4771 122 26 122H154.695C156.725 122 158.707 121.382 160.377 120.229L198.682 93.7815C201.386 91.9146 203 88.8384 203 85.5525V22C203 16.4772 198.523 12 193 12Z" fill="#C4C4C4" fill-opacity="0.4" shape-rendering="crispEdges"/>
<path d="M193 12H26C20.4772 12 16 16.4771 16 22V112C16 117.523 20.4771 122 26 122H154.695C156.725 122 158.707 121.382 160.377 120.229L198.682 93.7815C201.386 91.9146 203 88.8384 203 85.5525V22C203 16.4772 198.523 12 193 12Z" stroke="url(#paint0_linear_22_13)" stroke-opacity="0.5" shape-rendering="crispEdges"/>
<path d="M193 12H26C20.4772 12 16 16.4771 16 22V112C16 117.523 20.4771 122 26 122H154.695C156.725 122 158.707 121.382 160.377 120.229L198.682 93.7815C201.386 91.9146 203 88.8384 203 85.5525V22C203 16.4772 198.523 12 193 12Z" stroke="url(#paint1_linear_22_13)" stroke-opacity="0.5" shape-rendering="crispEdges"/>
</g>
<defs>
<filter id="filter0_bd_22_13" x="0.5" y="0.5" width="218" height="141" filterUnits="userSpaceOnUse" color-interpolation-filters="sRGB">
<feFlood flood-opacity="0" result="BackgroundImageFix"/>
<feGaussianBlur in="BackgroundImage" stdDeviation="4.5"/>
<feComposite in2="SourceAlpha" operator="in" result="effect1_backgroundBlur_22_13"/>
<feColorMatrix in="SourceAlpha" type="matrix" values="0 0 0 0 0 0 0 0 0 0 0 0 0 0 0 0 0 0 127 0" result="hardAlpha"/>
<feOffset dy="4"/>
<feGaussianBlur stdDeviation="7.5"/>
<feComposite in2="hardAlpha" operator="out"/>
<feColorMatrix type="matrix" values="0 0 0 0 0 0 0 0 0 0 0 0 0 0 0 0 0 0 0.45 0"/>
<feBlend mode="normal" in2="effect1_backgroundBlur_22_13" result="effect2_dropShadow_22_13"/>
<feBlend mode="normal" in="SourceGraphic" in2="effect2_dropShadow_22_13" result="shape"/>
</filter>
<linearGradient id="paint0_linear_22_13" x1="8.7892" y1="25.6" x2="199.02" y2="6.02056" gradientUnits="userSpaceOnUse">
<stop stop-color="white"/>
<stop offset="1" stop-color="white" stop-opacity="0"/>
</linearGradient>
<linearGradient id="paint1_linear_22_13" x1="206.846" y1="23.6" x2="147.449" y2="116.218" gradientUnits="userSpaceOnUse">
<stop stop-color="white" stop-opacity="0.27"/>
<stop offset="1" stop-color="white" stop-opacity="0.77"/>
</linearGradient>
</defs>
</svg>
